<svg width="245" height="58" viewBox="0 0 245 58" fill="none" xmlns="http://www.w3.org/2000/svg">
<g clip-path="url(#clip0_1260_2730)">
<path fill-rule="evenodd" clip-rule="evenodd" d="M60.8842 0V0.0500216C67.9108 0.447068 73.5363 2.51984 75.0429 8.45052C75.8941 11.8082 74.9559 15.2972 73.7724 17.8296C72.6139 20.303 71.1189 22.6021 69.3304 24.6606C65.9134 28.6999 61.754 32.0013 57.1722 35.0776C52.5192 38.1731 47.5418 40.7438 42.3301 42.7434C39.5198 43.8445 36.631 44.7307 33.6882 45.3946C30.6813 46.0605 26.963 46.5732 23.6827 45.8385C20.6043 45.1507 18.2249 43.575 17.7807 40.4331C17.293 37.0472 18.958 34.2366 20.4646 32.0294C23.5398 27.5275 27.7986 24.2667 32.6228 21.6124C37.4469 18.9582 43.0663 16.7385 50.4407 17.0448C44.4175 17.7108 40.3047 19.5147 36.282 22.1533C32.7905 24.4449 28.6249 27.8839 27.3482 32.4702C26.4567 35.6841 27.9353 37.8319 30.1439 38.8574C32.3525 39.8828 35.7353 39.961 38.59 39.6921C44.2933 39.1512 49.1174 37.0941 53.0407 34.9276C59.1167 31.573 64.4627 27.0116 68.0785 21.0216C69.2962 19.0019 70.3989 16.7103 70.9115 14.2405C72.2907 7.50323 68.9607 3.75162 64.1987 2.26035C59.3311 0.744071 52.23 1.52566 47.2598 2.85123C37.217 5.53051 29.2431 10.4201 22.1171 16.2132C18.6012 19.1006 15.3937 22.3487 12.5465 25.9049C9.64829 29.4971 7.06381 33.4363 5.37086 37.9914C4.43896 40.4612 3.77731 43.2468 4.15007 46.2481C5.1441 54.2609 13.5064 56.6588 22.8968 56.1242C34.822 55.4395 43.8149 51.3034 51.9939 46.7858C44.5791 51.419 35.5986 55.7115 25.093 57.3997C13.3138 59.2943 0.804542 57.1246 0 46.0511V44.0815C0.804542 36.6127 4.34887 31.1228 7.90874 26.4895C11.7264 21.5374 16.0473 17.6482 20.8466 14.006C25.8168 10.244 31.2453 7.13828 36.9996 4.76455C43.5432 1.98856 50.5158 0.376459 57.607 0L60.8842 0Z" fill="#EB212E"/>
<path fill-rule="evenodd" clip-rule="evenodd" d="M63.9565 13.8467C63.3694 15.2567 62.453 16.7573 61.7603 18.2236C63.6241 18.458 65.724 18.458 67.6623 18.6175C65.2394 19.471 62.7667 20.2745 60.291 21.0748C59.4626 22.6526 58.6488 24.2407 57.8494 25.8393C57.0697 24.842 56.4826 23.6509 55.7029 22.6473C53.2893 23.3977 50.9658 24.2355 48.5583 25.0046C50.5091 23.5634 52.4972 22.1565 54.4604 20.7309C53.864 19.6929 53.1433 18.7801 52.5562 17.7327C53.9478 17.839 55.3146 17.8922 56.7063 17.9797C57.1567 18.0078 57.6879 18.1517 58.0731 18.0766C58.4582 18.0016 59.1479 17.3607 59.5858 17.0449C61.052 15.9882 62.5307 14.8565 63.9347 13.8498" fill="#EB212E"/>
<path d="M79.7335 25.758H78.0063V23.2569H79.7335V21.0935H83.1815V23.2632H88.5306V25.7643H83.1815V29.3033C83.1627 29.4391 83.1864 29.5773 83.2493 29.6989C83.3123 29.8205 83.4112 29.9194 83.5325 29.9817C83.8457 30.0964 84.1781 30.1484 84.511 30.1349C85.0733 30.1349 85.4429 30.0567 85.6448 29.9004C85.7527 29.7854 85.8342 29.648 85.8836 29.4978C85.933 29.3476 85.949 29.1884 85.9306 29.0313V28.406H88.95V29.5284C88.9532 29.9454 88.8773 30.3593 88.7263 30.7477C88.5756 31.1271 88.3383 31.4655 88.0336 31.7356C87.6792 32.0348 87.2665 32.2563 86.8221 32.3859C86.2469 32.5526 85.65 32.6316 85.0515 32.6203H83.6847C83.178 32.6228 82.6723 32.5746 82.1751 32.4765C81.7269 32.3919 81.2995 32.2198 80.917 31.9701C80.5514 31.721 80.2552 31.382 80.0565 30.9853C79.8281 30.4908 79.7216 29.9481 79.7459 29.4033L79.7335 25.758Z" fill="#EB212E"/>
<path d="M97.7534 18.7581H101.201V21.4686H97.7534V18.7581ZM92.8796 18.7581H96.3307V21.4686H92.8796V18.7581ZM103.177 32.4827H99.7135V31.004H99.6794C99.5465 31.3003 99.3564 31.567 99.1202 31.7887C98.8839 32.0104 98.6062 32.1825 98.3033 32.2951C97.5653 32.54 96.7905 32.6532 96.0139 32.6297C95.6535 32.6297 95.2808 32.6297 94.8894 32.6046C94.5033 32.5851 94.1191 32.537 93.74 32.4608C93.3637 32.3811 92.9986 32.2551 92.6528 32.0857C92.3041 31.9189 91.9949 31.6791 91.7458 31.3822C91.4682 31.0465 91.2573 30.6601 91.1245 30.2443C90.9541 29.7006 90.8743 29.1322 90.8884 28.5623V23.2475H94.3396V28.5623C94.3396 29.4648 95.082 29.917 96.5668 29.9191H97.3558C97.9754 29.9575 98.5891 29.7785 99.0923 29.4126C99.3043 29.2281 99.4709 28.9965 99.5787 28.736C99.6865 28.4756 99.7327 28.1935 99.7135 27.912V23.2631H103.162L103.177 32.4827Z" fill="#EB212E"/>
<path d="M105.532 23.2631H108.765V25.0107H108.803C108.886 24.6742 109.045 24.3617 109.269 24.0978C109.484 23.8514 109.747 23.6515 110.042 23.51C110.355 23.3603 110.688 23.2551 111.03 23.1974C111.405 23.1388 111.784 23.1096 112.164 23.1099C113.421 23.1099 114.318 23.3954 114.857 23.9665C115.397 24.5386 115.664 25.4671 115.664 26.7458C115.664 26.8646 115.664 26.9865 115.664 27.1147C115.664 27.2429 115.664 27.3867 115.64 27.5555H112.658C112.66 27.3008 112.639 27.0463 112.592 26.7958C112.56 26.598 112.477 26.4118 112.353 26.255C112.21 26.1049 112.028 25.9987 111.828 25.9486C111.554 25.868 111.269 25.831 110.983 25.8392C110.474 25.817 109.969 25.9429 109.529 26.2018C109.34 26.3338 109.189 26.5139 109.092 26.7236C108.994 26.9333 108.953 27.1654 108.973 27.3961V32.4952H105.532V23.2631Z" fill="#EB212E"/>
<path d="M117.516 19.3928H120.967V26.302H121.613L124.648 23.2632H129.177L124.577 27.5839L129.733 32.486H125.332L121.647 28.7969H120.967V32.486H117.516V19.3928Z" fill="#EB212E"/>
<path d="M134.908 32.4858H131.457V23.2631H134.908V32.4858ZM134.908 22.1063H131.46V19.3833H134.908V22.1063Z" fill="#EB212E"/>
<path d="M139.239 33.4269H139.524C140.083 33.4489 140.64 33.3563 141.161 33.1549C141.364 33.0652 141.532 32.9135 141.644 32.7216C141.756 32.5296 141.804 32.3071 141.783 32.0857H140.562L136.347 23.2632H140.074L142.715 29.6816L145.377 23.2632H149.104L143.963 34.1866C143.721 34.7194 143.289 35.1412 142.752 35.3684C142.076 35.6163 141.358 35.7299 140.64 35.7029C140.329 35.7029 140.043 35.7029 139.823 35.6779L139.239 35.631V33.4269Z" fill="#EB212E"/>
<path d="M158.392 26.5897C158.4 26.3617 158.363 26.1343 158.284 25.9207C158.202 25.7461 158.062 25.6057 157.889 25.5236C157.645 25.4139 157.383 25.3493 157.116 25.3329C156.805 25.3048 156.379 25.2891 155.873 25.2891C155.308 25.2891 154.863 25.2891 154.534 25.3329C154.273 25.3456 154.016 25.4105 153.779 25.5236C153.618 25.6058 153.495 25.7484 153.438 25.9207C153.378 26.1385 153.351 26.3639 153.357 26.5897H158.392ZM149.912 27.3682C149.891 26.6446 149.996 25.923 150.223 25.236C150.391 24.7307 150.691 24.2804 151.092 23.9323C151.483 23.6197 151.942 23.4053 152.431 23.307C152.999 23.1865 153.578 23.1288 154.158 23.1351H156.56C157.348 23.1254 158.135 23.1829 158.914 23.307C159.489 23.3917 160.038 23.6054 160.52 23.9323C160.946 24.2361 161.271 24.6622 161.452 25.1547C161.668 25.7879 161.768 26.4552 161.747 27.1243V28.6875H153.36V29.2502C153.337 29.4496 153.375 29.6513 153.468 29.8287C153.561 30.0061 153.705 30.1511 153.882 30.2444C154.39 30.4416 154.934 30.5279 155.479 30.4976H156.541C156.908 30.5062 157.274 30.4758 157.634 30.407C157.843 30.3715 158.042 30.2915 158.218 30.1725C158.334 30.0934 158.417 29.9744 158.451 29.838C158.484 29.7104 158.5 29.579 158.498 29.4472H161.732V29.8474C161.753 30.3454 161.629 30.8389 161.374 31.2667C161.13 31.637 160.791 31.934 160.393 32.1265C159.937 32.3441 159.449 32.4876 158.948 32.5516C158.365 32.6314 157.776 32.6701 157.187 32.6673H154.599C154.032 32.6684 153.465 32.6266 152.903 32.5423C152.366 32.4654 151.854 32.2677 151.403 31.9639C150.933 31.6293 150.56 31.1737 150.325 30.6446C150.018 29.8997 149.877 29.0961 149.912 28.2904V27.3682Z" fill="#EB212E"/>
<path d="M168.814 28.7969H165.04V32.486H168.814V28.7969Z" fill="#EB212E"/>
<path d="M179.447 29.3377C179.8 29.3453 180.153 29.3159 180.5 29.2502C180.73 29.2006 180.944 29.0931 181.121 28.9376C181.277 28.7817 181.385 28.5842 181.432 28.3686C181.497 28.0805 181.527 27.7855 181.522 27.4901C181.527 27.1926 181.497 26.8956 181.432 26.6053C181.386 26.3863 181.278 26.1854 181.121 26.0269C180.943 25.8728 180.73 25.7654 180.5 25.7143C180.154 25.6404 179.801 25.6069 179.447 25.6143H177.757C177.404 25.607 177.052 25.6406 176.707 25.7143C176.472 25.7629 176.253 25.8705 176.07 26.0269C175.912 26.1847 175.804 26.3859 175.76 26.6053C175.695 26.8956 175.665 27.1926 175.67 27.4901C175.664 27.7855 175.694 28.0805 175.76 28.3686C175.806 28.5847 175.914 28.7825 176.07 28.9376C176.252 29.0954 176.472 29.2032 176.707 29.2502C177.053 29.3158 177.405 29.3451 177.757 29.3377H179.447ZM172.302 26.7335C172.285 26.132 172.376 25.5324 172.573 24.964C172.729 24.5245 173.006 24.1386 173.371 23.851C173.763 23.5626 174.216 23.368 174.694 23.282C175.292 23.1664 175.9 23.1119 176.508 23.1194H178.518C178.878 23.1146 179.238 23.1323 179.596 23.1726C179.857 23.2022 180.111 23.2718 180.351 23.3789C180.571 23.4861 180.772 23.6298 180.944 23.8041C181.161 24.0298 181.359 24.2723 181.538 24.5294H181.572V23.2789H184.827V31.9201C184.828 32.3927 184.773 32.8638 184.666 33.3238C184.553 33.783 184.317 34.2018 183.982 34.5337C183.557 34.9371 183.043 35.2329 182.482 35.3966C181.637 35.6341 180.761 35.7395 179.885 35.7092H176.07C175.55 35.7148 175.03 35.673 174.517 35.5842C174.11 35.5191 173.722 35.3678 173.377 35.1402C173.066 34.9214 172.824 34.6177 172.678 34.2649C172.5 33.8107 172.416 33.3243 172.433 32.8361H175.993C175.989 32.9327 176.006 33.029 176.043 33.1182C176.08 33.2073 176.136 33.2872 176.207 33.352C176.385 33.4873 176.606 33.5539 176.828 33.5395H179.313C179.908 33.5838 180.501 33.4324 181.003 33.1081C181.374 32.8184 181.559 32.2817 181.559 31.498V30.8728C181.403 31.0341 181.231 31.1796 181.047 31.3073C180.861 31.4352 180.658 31.5353 180.444 31.6043C180.18 31.692 179.907 31.7497 179.63 31.7763C179.245 31.8171 178.859 31.8359 178.472 31.8326H176.657C175.955 31.8454 175.255 31.7591 174.576 31.5762C174.076 31.447 173.615 31.1957 173.234 30.8446C172.898 30.5123 172.651 30.0992 172.517 29.6441C172.366 29.1052 172.293 28.547 172.302 27.9872V26.7335Z" fill="#EB212E"/>
<path d="M190.419 28.3091C190.419 28.9719 190.612 29.4242 190.999 29.666C191.548 29.9413 192.159 30.0654 192.77 30.0255H193.599C194.049 30.0314 194.498 30.0106 194.944 29.963C195.229 29.9382 195.507 29.8586 195.761 29.7285C195.946 29.6296 196.087 29.4644 196.156 29.2658C196.229 29.0196 196.263 28.7631 196.255 28.5061V27.2399C196.261 26.9861 196.228 26.733 196.156 26.4896C196.088 26.2888 195.947 26.1213 195.761 26.0206C195.508 25.8877 195.23 25.8079 194.944 25.7862C194.498 25.7401 194.049 25.7193 193.599 25.7236H192.77C192.159 25.6837 191.548 25.8078 190.999 26.0832C190.612 26.3249 190.419 26.7772 190.419 27.44V28.3091ZM186.967 26.771C186.943 26.1348 187.061 25.5014 187.312 24.917C187.511 24.478 187.817 24.0964 188.201 23.8072C188.565 23.5422 188.981 23.3569 189.421 23.2632C189.862 23.1678 190.312 23.1196 190.763 23.1194H195.917C196.367 23.1194 196.816 23.1676 197.256 23.2632C197.697 23.3563 198.114 23.5416 198.479 23.8072C198.863 24.0964 199.169 24.478 199.368 24.917C199.616 25.5021 199.733 26.1352 199.71 26.771V28.9782C199.733 29.614 199.616 30.2471 199.368 30.8321C199.17 31.2717 198.864 31.6535 198.479 31.9419C198.114 32.2075 197.697 32.3928 197.256 32.4859C196.816 32.5815 196.367 32.6297 195.917 32.6297H190.751C190.3 32.6295 189.85 32.5813 189.409 32.4859C188.969 32.3922 188.553 32.2069 188.188 31.9419C187.808 31.652 187.507 31.2703 187.312 30.8321C187.062 30.2476 186.945 29.6141 186.97 28.9782L186.967 26.771Z" fill="#EB212E"/>
<path d="M200.756 23.2632H204.512L207.314 29.7722L210.119 23.2632H213.871L209.47 32.4859H205.158L200.756 23.2632Z" fill="#EB212E"/>
<path d="M218.975 28.7969H215.204V32.486H218.975V28.7969Z" fill="#EB212E"/>
<path d="M223.538 25.758H221.814V23.2569H223.538V21.0935H226.986V23.2632H232.354V25.7643H226.986V29.3033C226.968 29.4391 226.991 29.5774 227.054 29.6989C227.117 29.8205 227.216 29.9194 227.337 29.9817C227.651 30.0962 227.983 30.1482 228.316 30.1349C228.881 30.1349 229.248 30.0567 229.45 29.9004C229.559 29.786 229.641 29.6488 229.691 29.4985C229.741 29.3482 229.757 29.1887 229.739 29.0313V28.406H232.755V29.5284C232.758 29.9454 232.682 30.3593 232.531 30.7477C232.382 31.1277 232.144 31.4664 231.838 31.7356C231.484 32.0361 231.07 32.2577 230.624 32.3859C230.051 32.553 229.456 32.6321 228.86 32.6203H227.49C226.984 32.6228 226.479 32.5746 225.983 32.4765C225.534 32.3919 225.106 32.2198 224.722 31.9701C224.356 31.721 224.06 31.382 223.861 30.9853C223.635 30.4902 223.528 29.948 223.551 29.4033L223.538 25.758Z" fill="#EB212E"/>
<path d="M234.696 23.2631H237.946V25.0107H237.983C238.063 24.6732 238.223 24.3601 238.449 24.0978C238.663 23.8509 238.925 23.6508 239.219 23.51C239.534 23.3608 239.867 23.2556 240.21 23.1974C240.584 23.1388 240.962 23.1096 241.341 23.1099C242.598 23.1099 243.497 23.3954 244.037 23.9665C244.574 24.5386 244.845 25.4671 244.845 26.7458C244.845 26.8646 244.845 26.9865 244.845 27.1147C244.845 27.2429 244.845 27.3867 244.817 27.5555H241.835C241.839 27.3009 241.818 27.0464 241.773 26.7958C241.74 26.5973 241.657 26.4108 241.53 26.255C241.395 26.1057 241.22 25.9974 241.027 25.9423C240.753 25.8619 240.468 25.825 240.182 25.8329C239.673 25.8099 239.168 25.9358 238.728 26.1956C238.538 26.327 238.387 26.5068 238.288 26.7166C238.19 26.9265 238.149 27.1588 238.169 27.3898V32.4889H234.721L234.696 23.2631Z" fill="#EB212E"/>
<path d="M189.018 35.925C189.015 35.8135 189.026 35.7021 189.052 35.5936C189.069 35.505 189.114 35.4242 189.179 35.3622C189.253 35.296 189.343 35.2507 189.44 35.2309C189.581 35.1988 189.725 35.1841 189.869 35.1872H190.086V35.6999H189.931C189.772 35.6999 189.695 35.7749 189.695 35.9281V36.1219H189.928V36.9848H189.018V35.925ZM187.682 35.925C187.68 35.8135 187.692 35.7023 187.716 35.5936C187.735 35.5055 187.779 35.425 187.843 35.3622C187.918 35.2966 188.008 35.2514 188.104 35.2309C188.245 35.1991 188.389 35.1844 188.533 35.1872H188.754V35.6999H188.595C188.564 35.6947 188.532 35.6969 188.502 35.7065C188.472 35.716 188.444 35.7325 188.421 35.7547C188.399 35.777 188.382 35.8042 188.371 35.8343C188.361 35.8644 188.358 35.8966 188.362 35.9281V36.1219H188.592V36.9848H187.682V35.925Z" fill="#231F20"/>
<path d="M191.733 37.6037H193.494C193.585 37.6055 193.676 37.596 193.764 37.5756C193.831 37.5622 193.893 37.5309 193.944 37.4849C193.995 37.4368 194.031 37.3749 194.047 37.3067C194.073 37.2132 194.084 37.1161 194.081 37.0191V36.5783C194.084 36.4812 194.073 36.3841 194.047 36.2906C194.03 36.2236 193.994 36.1629 193.944 36.1156C193.894 36.0685 193.831 36.0361 193.764 36.0218C193.675 36.0025 193.585 35.9941 193.494 35.9968H191.733V37.6037ZM190.745 35.187H193.733C193.942 35.1841 194.15 35.2051 194.354 35.2496C194.506 35.2833 194.649 35.3518 194.771 35.4496C194.878 35.5437 194.956 35.6661 194.997 35.8029C195.048 35.97 195.072 36.1441 195.069 36.3188V37.3067C195.072 37.4814 195.048 37.6555 194.997 37.8225C194.956 37.9594 194.878 38.0818 194.771 38.1758C194.65 38.2748 194.507 38.3434 194.354 38.3759C194.15 38.4203 193.942 38.4413 193.733 38.4384H190.745V35.187Z" fill="#231F20"/>
<path d="M197.628 36.9753C197.632 36.9189 197.623 36.8625 197.604 36.8096C197.585 36.765 197.551 36.7292 197.507 36.7096C197.446 36.683 197.381 36.6671 197.315 36.6627C197.234 36.6627 197.131 36.6627 197.004 36.6627C196.877 36.6627 196.756 36.6627 196.672 36.6627C196.607 36.6662 196.544 36.6821 196.485 36.7096C196.465 36.7196 196.448 36.7337 196.433 36.7509C196.419 36.7681 196.408 36.7881 196.401 36.8096C196.386 36.8635 196.379 36.9193 196.38 36.9753H197.628ZM195.522 37.166C195.516 36.9866 195.543 36.8076 195.6 36.6377C195.644 36.5163 195.719 36.4085 195.817 36.325C195.914 36.2466 196.028 36.193 196.15 36.1687C196.291 36.1386 196.434 36.1239 196.578 36.1249H197.175C197.37 36.123 197.566 36.1376 197.759 36.1687C197.902 36.1877 198.04 36.2402 198.16 36.3219C198.265 36.4002 198.344 36.5094 198.386 36.6345C198.441 36.7911 198.466 36.9564 198.461 37.1222V37.5099H196.38V37.6475C196.374 37.6971 196.383 37.7475 196.406 37.7916C196.43 37.8358 196.466 37.8717 196.51 37.8944C196.637 37.9442 196.772 37.9655 196.908 37.957H197.172C197.262 37.9596 197.353 37.9523 197.442 37.9351C197.494 37.9251 197.543 37.9061 197.588 37.8788C197.616 37.8576 197.637 37.828 197.647 37.7944C197.65 37.7622 197.65 37.7297 197.647 37.6975H198.452V37.7975C198.457 37.9206 198.425 38.0424 198.362 38.1477C198.302 38.2405 198.218 38.3151 198.119 38.3634C198.005 38.4166 197.884 38.4514 197.759 38.4666C197.614 38.4885 197.467 38.499 197.321 38.4978H196.681C196.54 38.4987 196.398 38.4882 196.259 38.4666C196.125 38.4471 195.998 38.398 195.886 38.3228C195.768 38.2402 195.674 38.1267 195.616 37.9945C195.539 37.8095 195.504 37.6099 195.513 37.4099L195.522 37.166Z" fill="#231F20"/>
<path d="M198.675 36.147H199.607L200.306 37.7664L200.999 36.147H201.934L200.84 38.4386H199.769L198.675 36.147Z" fill="#231F20"/>
<path d="M203.161 35.187H202.303V38.4384H203.161V35.187Z" fill="#231F20"/>
<path d="M205.798 36.9753C205.8 36.9187 205.791 36.8622 205.77 36.8096C205.751 36.7657 205.717 36.7302 205.674 36.7095C205.613 36.683 205.548 36.6671 205.481 36.6626C205.4 36.6626 205.297 36.6626 205.171 36.6626C205.031 36.6626 204.919 36.6626 204.838 36.6626C204.773 36.6658 204.708 36.6818 204.649 36.7095C204.629 36.7196 204.611 36.7337 204.597 36.7509C204.582 36.7681 204.571 36.788 204.565 36.8096C204.55 36.8634 204.542 36.9193 204.543 36.9753H205.798ZM203.692 37.166C203.687 36.9869 203.712 36.8081 203.767 36.6376C203.811 36.5162 203.886 36.4085 203.984 36.325C204.081 36.2477 204.195 36.1942 204.316 36.1687C204.457 36.1386 204.601 36.1239 204.745 36.1249H205.329C205.526 36.1231 205.722 36.1377 205.916 36.1687C206.059 36.1882 206.195 36.2406 206.314 36.3219C206.419 36.4009 206.499 36.5097 206.544 36.6345C206.595 36.7917 206.619 36.9567 206.615 37.1222V37.5099H204.534V37.6474C204.528 37.6971 204.538 37.7472 204.561 37.7913C204.584 37.8354 204.62 37.8714 204.664 37.8944C204.791 37.9442 204.926 37.9655 205.062 37.9569H205.329C205.421 37.9594 205.512 37.9521 205.602 37.9351C205.653 37.9252 205.701 37.9061 205.745 37.8788C205.774 37.8586 205.795 37.8287 205.804 37.7944C205.808 37.7622 205.808 37.7297 205.804 37.6975H206.609V37.7975C206.616 37.9144 206.588 38.0308 206.529 38.1316C206.469 38.2324 206.382 38.3131 206.276 38.3634C206.173 38.4092 206.063 38.4398 205.95 38.454C205.804 38.476 205.657 38.4864 205.509 38.4853H204.866C204.726 38.4858 204.586 38.4753 204.447 38.454C204.313 38.4351 204.186 38.3859 204.074 38.3102C203.958 38.2265 203.866 38.1133 203.807 37.982C203.731 37.797 203.696 37.5974 203.704 37.3973L203.692 37.166Z" fill="#231F20"/>
<path d="M207.314 36.769H206.882V36.1437H207.311V35.6091H208.168V36.15H209.501V36.7753H208.168V37.6538C208.164 37.6875 208.17 37.7218 208.185 37.752C208.201 37.7822 208.225 37.8068 208.255 37.8226C208.333 37.8507 208.415 37.8634 208.498 37.8601C208.595 37.8704 208.694 37.8508 208.78 37.8038C208.807 37.7752 208.827 37.7411 208.839 37.7038C208.852 37.6666 208.856 37.6271 208.852 37.5881V37.4349H209.6V37.7132C209.602 37.8201 209.583 37.9263 209.544 38.0258C209.508 38.1188 209.45 38.2022 209.377 38.2697C209.285 38.3441 209.179 38.3994 209.066 38.4322C208.923 38.475 208.774 38.4951 208.625 38.4916H208.286C208.161 38.4922 208.036 38.4796 207.914 38.4541C207.803 38.4335 207.697 38.391 207.603 38.3291C207.512 38.2672 207.439 38.1833 207.389 38.0852C207.331 37.9622 207.303 37.8272 207.308 37.6913L207.314 36.769Z" fill="#231F20"/>
<path d="M210.992 38.454H210.138V36.1656H210.992V38.454ZM210.992 35.8779H210.135V35.2026H210.992V35.8779Z" fill="#231F20"/>
<path d="M211.632 36.1469H212.489V36.5158C212.556 36.3707 212.678 36.2583 212.828 36.2032C213.012 36.1421 213.205 36.1136 213.399 36.1188H213.679C213.776 36.1249 213.872 36.1374 213.968 36.1563C214.06 36.1756 214.15 36.2061 214.235 36.2469C214.321 36.2896 214.398 36.3491 214.462 36.422C214.529 36.5066 214.581 36.603 214.614 36.7065C214.657 36.8408 214.677 36.9814 214.673 37.1223V38.4542H213.815V37.138C213.815 36.916 213.629 36.8034 213.263 36.8034H213.067C212.913 36.7932 212.76 36.8374 212.635 36.9285C212.582 36.9741 212.541 37.0315 212.515 37.0962C212.488 37.1608 212.477 37.2308 212.483 37.3005V38.4542H211.625L211.632 36.1469Z" fill="#231F20"/>
<path d="M217.512 35.187H218.503V36.3813H218.969L220.218 35.187H221.566L219.817 36.7783L221.771 38.4384H220.37L218.941 37.191H218.503V38.4384H217.512V35.187Z" fill="#231F20"/>
<path d="M223.007 36.1499H222.15V38.4415H223.007V36.1499Z" fill="#231F20"/>
<path d="M224.442 37.7257C224.442 37.7559 224.448 37.7859 224.461 37.8132C224.475 37.8431 224.499 37.8666 224.529 37.8789C224.58 37.9013 224.633 37.916 224.688 37.9226C224.784 37.9286 224.88 37.9286 224.977 37.9226H225.287C225.39 37.9226 225.47 37.9226 225.539 37.9226C225.591 37.9212 225.644 37.9128 225.694 37.8976C225.725 37.8875 225.753 37.8691 225.775 37.8445C225.79 37.8178 225.797 37.7876 225.797 37.7569C225.799 37.7287 225.793 37.7004 225.781 37.6751C225.768 37.6498 225.749 37.6283 225.725 37.6131C225.627 37.5741 225.52 37.5591 225.415 37.5694H224.61C224.444 37.5719 224.277 37.5594 224.113 37.5319C224.001 37.5124 223.895 37.4687 223.802 37.4037C223.721 37.3417 223.663 37.255 223.635 37.1567C223.598 37.0288 223.581 36.8959 223.585 36.7628C223.58 36.6432 223.607 36.5246 223.663 36.4189C223.718 36.3337 223.795 36.2655 223.886 36.2219C223.99 36.1718 224.101 36.1401 224.216 36.1281C224.353 36.1124 224.491 36.1051 224.629 36.1062H225.21C225.437 36.1023 225.664 36.1137 225.89 36.1406C226.029 36.1533 226.165 36.1914 226.291 36.2532C226.379 36.2966 226.448 36.3727 226.483 36.4658C226.519 36.5746 226.537 36.6887 226.536 36.8034H225.679C225.669 36.7731 225.654 36.7453 225.632 36.7221C225.607 36.6968 225.574 36.6803 225.539 36.6752C225.477 36.6633 225.415 36.6549 225.352 36.6502H225.042H224.731C224.671 36.6509 224.61 36.6583 224.551 36.6721C224.517 36.6799 224.487 36.6986 224.464 36.7253C224.45 36.7534 224.444 36.7846 224.445 36.8159C224.439 36.8362 224.439 36.8582 224.445 36.8784C224.464 36.9 224.489 36.9153 224.517 36.9222C224.568 36.9348 224.62 36.9421 224.672 36.9441C224.737 36.9441 224.827 36.9441 224.942 36.9441H225.536C225.738 36.9395 225.941 36.9595 226.138 37.0035C226.26 37.0328 226.374 37.0894 226.471 37.1692C226.54 37.2334 226.588 37.3174 226.607 37.4099C226.626 37.5046 226.636 37.601 226.635 37.6976C226.64 37.8258 226.622 37.9539 226.583 38.0758C226.549 38.1733 226.482 38.2553 226.393 38.3072C226.279 38.3747 226.152 38.4163 226.02 38.4291C225.82 38.4541 225.619 38.4656 225.418 38.4635H224.607C224.438 38.4642 224.27 38.4516 224.104 38.426C223.984 38.4077 223.87 38.364 223.768 38.2978C223.684 38.242 223.62 38.161 223.585 38.0665C223.542 37.9539 223.522 37.8337 223.526 37.7132L224.442 37.7257Z" fill="#231F20"/>
<path d="M228.561 37.935C228.704 37.935 228.819 37.935 228.906 37.935C228.973 37.9283 229.039 37.9115 229.102 37.885C229.12 37.8788 229.136 37.869 229.15 37.856C229.164 37.8431 229.175 37.8274 229.183 37.81C229.195 37.7771 229.202 37.7421 229.201 37.7068C229.201 37.6698 229.196 37.6329 229.186 37.5974C229.18 37.5818 229.17 37.5677 229.159 37.5559C229.147 37.544 229.133 37.5348 229.117 37.5286C229.068 37.5038 229.014 37.489 228.959 37.4849C228.891 37.4849 228.797 37.4849 228.679 37.4849H228.316C228.242 37.4841 228.168 37.4893 228.095 37.5005C228.047 37.5074 228 37.5244 227.959 37.5505C227.931 37.5716 227.91 37.5997 227.896 37.6318C227.883 37.671 227.877 37.7123 227.878 37.7537C227.875 37.7875 227.884 37.8211 227.902 37.8498C227.92 37.8784 227.946 37.9006 227.977 37.9132C228.09 37.9536 228.209 37.9696 228.328 37.9601L228.561 37.935ZM227.033 37.6224C227.025 37.4953 227.053 37.3684 227.114 37.2566C227.169 37.1658 227.253 37.0965 227.353 37.0597C227.478 37.0112 227.61 36.9837 227.744 36.9784C227.9 36.9784 228.083 36.9784 228.291 36.9784C228.406 36.9784 228.512 36.9784 228.602 36.9784C228.684 36.9786 228.766 36.9859 228.847 37.0003C228.913 37.0072 228.977 37.0263 229.037 37.0565C229.089 37.0814 229.138 37.1153 229.179 37.1566V36.9534C229.185 36.9056 229.185 36.8574 229.179 36.8096C229.169 36.7727 229.147 36.74 229.117 36.7158C229.08 36.6903 229.037 36.6722 228.993 36.6626C228.926 36.6568 228.858 36.6568 228.791 36.6626H228.288C228.201 36.6576 228.114 36.6671 228.03 36.6908C227.983 36.7126 227.962 36.7627 227.956 36.844H227.126C227.122 36.7165 227.141 36.5893 227.182 36.4688C227.22 36.3791 227.285 36.3037 227.368 36.2531C227.463 36.1964 227.569 36.1612 227.679 36.1499C227.832 36.1295 227.987 36.1201 228.142 36.1218H229.139C229.381 36.1039 229.622 36.1775 229.813 36.3281C229.893 36.4097 229.955 36.5079 229.994 36.6158C230.034 36.7237 230.049 36.8389 230.04 36.9534V38.454H229.229V38.1945C229.179 38.2473 229.126 38.2974 229.071 38.3446C229.025 38.38 228.976 38.4104 228.925 38.4353C228.865 38.459 228.802 38.4737 228.738 38.479C228.67 38.479 228.583 38.479 228.474 38.479H227.89C227.772 38.4794 227.653 38.471 227.536 38.454C227.439 38.4409 227.346 38.4079 227.263 38.3571C227.188 38.3081 227.129 38.2387 227.092 38.157C227.048 38.0523 227.028 37.9391 227.033 37.8256V37.6224Z" fill="#231F20"/>
<path d="M231.028 38.6729H231.112C231.249 38.6783 231.387 38.656 231.515 38.6073C231.565 38.5846 231.607 38.5468 231.634 38.4991C231.661 38.4514 231.673 38.3963 231.668 38.3415H231.357L230.31 36.1531H231.242L231.898 37.7506L232.553 36.1531H233.485L232.208 38.8667C232.18 38.9373 232.138 39.0013 232.085 39.0551C232.031 39.1088 231.968 39.1511 231.898 39.1794C231.73 39.2392 231.553 39.2668 231.376 39.2607H231.171H231.028V38.6729Z" fill="#231F20"/>
<path d="M234.585 37.4006C234.576 37.4649 234.586 37.5302 234.611 37.5897C234.637 37.6491 234.678 37.7004 234.731 37.7382C234.866 37.8071 235.017 37.8384 235.169 37.8289H235.374C235.485 37.8348 235.597 37.8348 235.709 37.8289C235.779 37.8217 235.848 37.8016 235.911 37.7695C235.957 37.7459 235.992 37.7057 236.01 37.657C236.028 37.5951 236.037 37.5307 236.035 37.4663V37.1536C236.036 37.0902 236.028 37.0269 236.01 36.966C235.994 36.9158 235.958 36.8742 235.911 36.8504C235.849 36.8155 235.78 36.7952 235.709 36.791C235.597 36.7851 235.485 36.7851 235.374 36.791H235.169C235.017 36.7807 234.866 36.8109 234.731 36.8785C234.678 36.9165 234.637 36.9679 234.612 37.0273C234.586 37.0867 234.577 37.1519 234.585 37.2161V37.4006ZM233.727 37.0192C233.721 36.8617 233.75 36.7048 233.811 36.5596C233.861 36.4503 233.938 36.3556 234.035 36.2845C234.127 36.2169 234.233 36.17 234.345 36.1469C234.455 36.1248 234.566 36.1133 234.678 36.1125H235.961C236.071 36.1132 236.182 36.1247 236.29 36.1469C236.402 36.1705 236.508 36.2173 236.601 36.2845C236.697 36.3549 236.773 36.4498 236.821 36.5596C236.885 36.704 236.915 36.8613 236.908 37.0192V37.5694C236.914 37.7273 236.884 37.8845 236.821 38.029C236.773 38.1388 236.697 38.2337 236.601 38.3041C236.508 38.3716 236.402 38.4175 236.29 38.4385C236.182 38.4634 236.071 38.4759 235.961 38.4761H234.678C234.566 38.4758 234.454 38.4632 234.345 38.4385C234.233 38.418 234.127 38.372 234.035 38.3041C233.938 38.233 233.861 38.1383 233.811 38.029C233.75 37.8837 233.722 37.7269 233.727 37.5694V37.0192Z" fill="#231F20"/>
<path d="M238.328 35.187H237.47V38.4384H238.328V35.187Z" fill="#231F20"/>
<path d="M242.015 38.4542H241.157V38.0853C241.124 38.1577 241.077 38.2227 241.018 38.2764C240.959 38.3301 240.891 38.3714 240.816 38.3979C240.633 38.4595 240.44 38.4881 240.247 38.4823H239.968C239.872 38.4762 239.776 38.4636 239.682 38.4448C239.589 38.4259 239.5 38.3955 239.415 38.3541C239.328 38.3114 239.251 38.2519 239.188 38.179C239.119 38.0947 239.067 37.9982 239.033 37.8945C238.991 37.76 238.971 37.6196 238.974 37.4787V36.1594H239.809V37.4787C239.809 37.7007 239.996 37.8133 240.365 37.8133H240.561C240.715 37.8225 240.867 37.7784 240.993 37.6882C241.045 37.6419 241.085 37.5843 241.112 37.5198C241.138 37.4554 241.149 37.3857 241.145 37.3162V36.1594H242.002L242.015 38.4542Z" fill="#231F20"/>
<path d="M243.928 36.4719H244.087C244.242 36.4719 244.323 36.3969 244.323 36.2437V36.0499H244.09V35.187H245V36.2468C245.001 36.3583 244.99 36.4695 244.966 36.5782C244.948 36.666 244.905 36.7465 244.842 36.8096C244.766 36.8752 244.675 36.9204 244.578 36.9409C244.437 36.973 244.293 36.9877 244.149 36.9847H243.928V36.4719ZM242.596 36.4719H242.751C242.909 36.4719 242.987 36.3969 242.987 36.2437V36.0499H242.754V35.187H243.664V36.2468C243.667 36.3581 243.656 36.4693 243.633 36.5782C243.614 36.6663 243.57 36.7468 243.506 36.8096C243.432 36.8752 243.342 36.9204 243.245 36.9409C243.103 36.9728 242.958 36.9875 242.813 36.9847H242.605L242.596 36.4719Z" fill="#231F20"/>
</g>
<defs>
<clipPath id="clip0_1260_2730">
<rect width="245" height="58" fill="white"/>
</clipPath>
</defs>
</svg>
